<?xml version="1.0" standalone="no"?>
<!DOCTYPE svg PUBLIC "-//W3C//DTD SVG 20010904//EN"
 "http://www.w3.org/TR/2001/REC-SVG-20010904/DTD/svg10.dtd">
<svg version="1.0" xmlns="http://www.w3.org/2000/svg"
 width="1024.000000pt" height="1024.000000pt" viewBox="0 0 1024.000000 1024.000000"
 preserveAspectRatio="xMidYMid meet">
<metadata>
Created by potrace 1.14, written by Peter Selinger 2001-2017
</metadata>
<g transform="translate(0.000000,1024.000000) scale(0.100000,-0.100000)"
fill="#000000" stroke="none">
<path d="M0 5120 l0 -5120 5120 0 5120 0 0 5120 0 5120 -5120 0 -5120 0 0
-5120z m5202 4053 c39 -36 55 -74 63 -148 l7 -60 37 0 c20 0 59 -4 87 -8 l51
-7 19 42 c10 23 39 62 64 88 96 98 234 88 292 -22 20 -38 23 -56 22 -149 l-2
-107 45 -6 c167 -23 560 -221 818 -412 155 -114 332 -273 449 -404 87 -97 246
-311 325 -439 177 -284 326 -664 381 -966 50 -277 52 -719 5 -996 -15 -88 -74
-326 -102 -414 -168 -525 -546 -1053 -1011 -1412 -223 -172 -451 -299 -737
-410 -173 -68 -448 -138 -620 -159 -22 -3 -71 -9 -110 -13 -102 -13 -522 -13
-648 -1 -246 24 -561 103 -775 196 -204 88 -513 259 -627 347 -183 141 -404
350 -532 502 -120 142 -291 402 -376 570 -77 154 -184 463 -227 654 -49 220
-55 284 -55 591 0 382 10 475 80 747 147 566 481 1091 942 1479 278 235 596
410 972 535 235 78 539 139 630 126 39 -5 42 -3 75 41 49 67 162 174 220 207
101 59 182 62 238 8z m1404 -6329 c89 -24 165 -93 201 -185 16 -40 18 -80 15
-419 l-2 -374 -33 -54 c-115 -191 -369 -221 -528 -63 -88 89 -89 92 -89 507 0
332 1 357 21 408 37 101 133 176 249 194 60 10 89 7 166 -14z m853 -6 c65 -25
127 -84 162 -153 l24 -50 0 -385 0 -385 -27 -46 c-34 -58 -97 -115 -157 -142
-71 -33 -207 -31 -282 4 -73 34 -128 85 -159 146 l-25 48 0 375 0 375 24 49
c82 166 259 232 440 164z m-4183 -1016 c-32 -62 -99 -125 -161 -154 -67 -30
-185 -30 -266 1 -74 28 -146 92 -175 156 l-24 50 0 488 0 487 105 0 105 0 -1
-472 -1 -471 30 -30 c23 -23 42 -31 80 -35 46 -4 52 -2 91 34 l42 38 -3 220
c-2 122 -2 332 0 468 l2 247 98 3 97 3 3 -493 2 -492 -24 -48z m5259 1027 c4
-5 -4 -27 -18 -47 -72 -107 -267 -436 -267 -450 1 -24 257 -604 286 -647 30
-42 21 -46 -98 -43 l-112 3 -40 91 c-23 51 -66 155 -96 233 -30 77 -57 141
-60 141 -3 0 -29 -39 -58 -86 l-52 -87 6 -122 c4 -67 4 -134 0 -149 -6 -26 -7
-26 -106 -26 l-100 0 0 595 0 595 106 0 106 0 -3 -246 c-2 -135 0 -240 4 -232
30 50 172 292 222 376 l60 101 85 4 c47 1 95 4 107 5 12 1 25 -3 28 -9z
m-6781 -8 c4 -5 18 -49 32 -98 58 -202 198 -616 202 -598 8 41 196 602 218
653 l23 52 115 0 116 0 0 -542 c0 -299 -3 -567 -6 -595 l-7 -53 -94 0 -94 0 3
349 c2 192 0 347 -3 345 -4 -2 -10 -16 -13 -31 -4 -16 -35 -100 -70 -188 -34
-88 -70 -181 -80 -208 -27 -74 -36 -79 -125 -74 l-76 5 -29 73 c-15 41 -52
143 -82 228 -29 84 -56 156 -59 159 -3 3 -5 -144 -5 -326 l0 -332 -94 0 -93 0
-7 68 c-3 37 -6 304 -5 595 l0 527 114 0 c63 0 116 -4 119 -9z m1934 -491 l-3
-500 193 0 192 0 0 -95 0 -95 -296 0 -296 0 4 595 3 595 103 0 103 0 -3 -500z
m1122 406 l0 -94 -198 -7 -198 -7 0 -147 -1 -146 146 0 146 0 3 -92 3 -91
-151 -7 -150 -8 0 -153 0 -154 200 0 200 0 0 -95 0 -95 -300 0 -300 0 0 595 0
595 300 0 300 0 0 -94z m728 -56 c35 -80 72 -165 82 -190 96 -240 159 -380
169 -380 3 0 5 162 3 360 l-3 360 101 0 100 0 0 -577 c0 -318 -3 -588 -6 -599
-5 -20 -11 -21 -97 -19 l-90 2 -30 59 c-39 77 -199 451 -248 579 l-38 100 -3
-370 -3 -370 -25 -3 c-13 -2 -57 -1 -97 3 l-73 7 0 594 0 595 97 -3 97 -3 64
-145z m-1370 -1260 c34 -16 62 -33 61 -37 0 -4 -14 -19 -30 -32 -29 -22 -31
-23 -50 -5 -40 36 -114 12 -149 -49 -13 -23 -12 -30 3 -61 18 -39 69 -76 103
-76 12 0 33 11 47 25 l25 26 29 -25 c23 -20 26 -28 17 -43 -14 -25 -92 -63
-129 -63 -51 0 -130 53 -154 103 -49 101 -8 205 99 251 48 21 56 20 128 -14z
m2115 16 c18 -7 51 -34 75 -59 40 -44 42 -50 42 -108 0 -94 -43 -151 -137
-179 -55 -17 -106 -6 -149 32 -47 42 -64 77 -64 138 0 134 119 224 233 176z
m545 0 c15 -8 36 -24 46 -35 20 -22 20 -22 -6 -48 l-26 -25 -30 22 c-27 20
-34 21 -66 10 -78 -25 -103 -115 -47 -171 38 -38 80 -42 114 -12 26 24 21 33
-15 31 -29 -3 -33 0 -36 22 -5 45 16 58 86 53 l62 -5 0 -68 c0 -76 -8 -87 -78
-115 -145 -58 -292 77 -238 218 39 103 155 164 234 123z m-3518 -42 l0 -45
-52 2 -53 3 -3 -132 -3 -132 -39 0 -40 0 0 135 0 135 -55 0 -55 0 0 33 c0 19
3 37 7 40 3 4 71 7 150 7 l143 0 0 -46z m422 14 c-3 -18 -10 -37 -16 -41 -6
-4 -40 -6 -76 -5 l-65 3 -3 -32 c-2 -22 1 -33 10 -34 7 0 40 -1 73 -2 60 -2
60 -2 60 -32 l0 -30 -73 -3 -73 -3 3 -32 3 -32 83 3 82 2 0 -45 c0 -52 7 -50
-158 -39 l-92 7 0 173 0 174 123 0 124 0 -5 -32z m758 -33 l0 -65 48 0 c26 0
58 -3 71 -7 l23 -6 -7 72 -7 71 43 0 44 0 4 -175 3 -175 -47 0 -46 0 2 67 c3
77 2 78 -77 68 l-54 -6 0 -65 0 -64 -46 0 -47 0 7 61 c3 34 6 113 6 175 l0
114 40 0 40 0 0 -65z m883 51 c18 -7 40 -21 50 -30 20 -21 23 -84 4 -110 -12
-16 -10 -22 11 -43 20 -20 23 -31 18 -61 -3 -20 -14 -48 -24 -62 -18 -24 -24
-25 -136 -28 l-116 -3 0 160 c0 88 -3 166 -6 175 -5 14 6 16 80 16 51 0 100
-6 119 -14z m357 -90 c0 -57 3 -118 6 -135 l7 -31 73 0 74 0 0 -43 0 -44 -107
4 c-60 3 -112 6 -118 7 -6 2 -10 68 -10 174 l0 172 38 0 37 0 0 -104z"/>
<path d="M5023 9054 c-111 -84 -232 -223 -287 -332 -46 -91 -84 -222 -97 -334
-14 -120 -4 -250 31 -418 45 -209 49 -252 32 -290 l-17 -35 -12 90 c-7 49 -18
94 -23 99 -7 7 -22 4 -45 -8 l-35 -19 -62 43 c-35 24 -82 61 -106 82 l-43 39
-60 -48 c-33 -26 -62 -50 -64 -53 -4 -6 117 -120 157 -148 25 -18 23 -31 -13
-68 l-30 -31 -124 68 c-68 38 -127 69 -132 69 -5 0 -31 -22 -58 -50 -48 -48
-48 -50 -30 -70 10 -11 58 -47 106 -80 92 -63 111 -81 90 -88 -6 -2 -25 -15
-40 -28 l-29 -24 -121 60 c-66 33 -126 60 -133 60 -18 -1 -123 -120 -105 -120
14 0 177 -91 222 -123 20 -15 19 -16 -17 -51 l-37 -36 -98 43 c-176 78 -155
76 -213 19 -27 -27 -50 -52 -50 -55 0 -2 12 -8 28 -12 15 -3 49 -20 76 -36 27
-17 73 -41 102 -54 30 -13 54 -26 54 -28 0 -3 -14 -19 -30 -37 -35 -37 -25
-38 -195 15 l-120 37 -37 -42 c-21 -24 -38 -46 -38 -49 0 -7 122 -77 208 -120
23 -12 42 -26 42 -32 0 -6 -12 -23 -27 -38 l-28 -28 -128 33 c-70 18 -132 36
-136 39 -12 7 -94 -102 -87 -114 4 -5 46 -31 94 -57 130 -70 128 -68 86 -119
l-36 -42 -67 22 c-36 12 -92 28 -125 36 -58 13 -59 12 -77 -12 -11 -13 -32
-40 -49 -60 l-29 -36 67 -31 c37 -17 83 -37 103 -45 20 -8 39 -19 42 -24 8
-13 -85 -88 -146 -120 -150 -76 -294 -112 -457 -116 -99 -2 -105 -1 -104 18
17 240 78 539 150 732 88 236 251 511 414 698 332 380 654 579 1205 746 77 23
147 45 155 48 13 4 13 3 0 -14 -13 -16 -13 -18 0 -13 9 3 20 27 26 59 6 30 14
64 18 77 7 20 5 22 -16 18 -13 -3 -59 -12 -103 -21 -174 -34 -485 -147 -665
-241 -197 -104 -460 -298 -588 -433 -342 -361 -576 -793 -676 -1246 -54 -246
-67 -672 -28 -912 75 -463 232 -820 517 -1179 113 -141 210 -240 358 -362 220
-182 414 -298 677 -405 310 -126 578 -178 925 -180 406 -2 855 100 1195 272
435 220 772 532 1018 944 238 396 337 743 349 1220 12 485 -60 815 -267 1215
-270 521 -622 866 -1157 1134 -103 52 -210 101 -238 110 -49 15 -50 15 -56 -6
-12 -43 -20 -141 -11 -127 8 11 34 2 138 -45 501 -228 840 -525 1128 -991 131
-213 250 -515 285 -728 6 -33 17 -100 26 -150 26 -143 31 -433 11 -605 -23
-197 -41 -296 -78 -425 -76 -272 -209 -527 -417 -800 -76 -100 -329 -347 -441
-429 -116 -86 -276 -186 -297 -186 -10 0 -13 48 -13 250 l0 250 35 51 c75 110
73 219 -8 325 -72 96 -202 111 -298 35 l-26 -20 -6 132 -5 132 28 45 c55 86
49 184 -16 273 -49 68 -85 87 -162 87 -73 0 -125 -22 -167 -72 -66 -78 -75
-166 -25 -260 17 -33 29 -67 26 -74 -9 -25 -165 -9 -182 18 -3 5 -5 36 -5 69
0 53 4 64 34 102 50 61 57 79 57 142 0 65 -30 133 -82 182 -41 39 -76 53 -134
53 -60 0 -110 -23 -161 -73 l-43 -41 0 28 c0 42 -29 96 -79 144 -52 51 -52 52
40 173 42 55 55 79 44 79 -34 0 -138 121 -182 210 -77 157 -88 267 -49 473 13
65 49 167 59 167 3 0 2 -40 -1 -88 -14 -250 58 -487 189 -624 40 -43 49 -47
76 -42 17 3 55 0 84 -7 30 -7 124 -15 209 -18 l155 -6 -40 -19 c-65 -30 -212
-33 -314 -7 -46 12 -86 20 -88 17 -12 -12 12 -49 46 -72 56 -37 167 -57 281
-51 52 3 106 9 120 15 21 8 41 0 129 -49 57 -32 147 -77 200 -100 143 -63 244
-114 279 -144 18 -15 55 -71 83 -126 57 -111 94 -148 177 -179 73 -28 159 -26
247 5 48 17 92 25 140 25 77 0 128 19 183 65 55 46 79 100 96 210 8 55 26 145
40 200 14 55 26 122 26 148 0 59 -62 215 -114 285 -37 50 -233 245 -434 431
-133 122 -263 268 -332 370 -23 35 -60 107 -81 160 -52 130 -106 182 -281 268
-72 35 -214 121 -328 198 -111 74 -206 135 -211 135 -23 0 -2 38 77 136 110
139 139 180 175 258 44 95 75 237 104 477 36 306 34 339 -20 339 -32 0 -59
-35 -102 -130 -21 -47 -49 -104 -61 -127 -24 -45 -162 -224 -223 -288 -37 -39
-38 -42 -48 -152 -12 -134 -57 -339 -107 -495 -40 -125 -62 -172 -108 -237
-30 -42 -136 -134 -144 -126 -3 2 10 26 27 53 68 107 159 433 207 749 26 166
28 197 26 468 -1 160 -4 302 -8 318 -8 40 -50 36 -111 -9z m-22 -769 c-9 -132
-33 -286 -67 -444 -10 -46 -22 -5 -39 130 -22 179 -17 207 99 613 10 38 11 36
14 -50 2 -49 -1 -161 -7 -249z m788 -1025 c82 -55 170 -172 231 -308 29 -64
77 -165 106 -224 30 -59 54 -110 54 -113 0 -14 -28 0 -108 54 -171 115 -223
131 -418 131 -95 0 -134 4 -160 16 -35 17 -91 75 -137 143 -34 51 -75 77 -147
92 -89 18 -101 45 -31 72 21 9 82 43 136 78 143 89 176 100 311 97 109 -3 113
-4 163 -38z m-1478 -49 c36 -36 39 -43 39 -95 0 -71 -20 -121 -51 -129 l-24
-6 2 -343 c2 -189 4 -834 5 -1435 l3 -1092 27 -28 c32 -34 58 -92 58 -131 0
-37 -53 -120 -86 -132 -64 -25 -137 1 -174 62 -38 63 -17 161 48 222 l30 28 1
1424 c1 1238 0 1424 -13 1424 -26 0 -75 51 -87 91 -16 53 1 108 46 148 30 26
44 31 87 31 45 0 54 -4 89 -39z m-301 -306 l30 -16 1 -147 c0 -81 0 -620 -1
-1199 l-1 -1052 37 -53 c34 -49 36 -57 31 -107 -5 -43 -12 -61 -35 -84 -55
-55 -150 -46 -201 19 -48 61 -35 141 33 206 l41 41 0 1196 c0 786 3 1199 10
1203 14 11 22 10 55 -7z m538 -149 c15 -8 41 -28 57 -46 25 -26 30 -39 30 -81
0 -46 -4 -54 -37 -85 -31 -28 -46 -34 -80 -34 -109 0 -186 119 -126 195 27 35
76 65 106 65 13 0 35 -6 50 -14z m-793 -161 c56 -32 75 -64 75 -121 0 -43 -4
-51 -45 -91 -36 -34 -45 -49 -45 -77 0 -19 -5 -47 -10 -61 -9 -25 -6 -31 35
-67 55 -49 73 -101 55 -162 -24 -81 -100 -121 -181 -97 -72 22 -114 109 -90
184 11 33 72 99 101 109 17 5 4 148 -14 148 -14 0 -59 46 -75 77 -28 55 4 133
69 165 47 24 76 23 125 -7z m2978 -187 c182 -186 209 -220 250 -314 42 -96 50
-153 31 -237 -8 -40 -25 -122 -38 -182 -26 -128 -44 -165 -97 -195 -124 -69
-283 21 -414 236 -59 96 -72 109 -92 88 -8 -7 -29 -14 -46 -14 l-31 0 36 -37
c20 -21 64 -85 98 -143 38 -65 79 -121 108 -146 l47 -41 -50 -7 c-32 -4 -70
-1 -105 8 -68 19 -104 57 -143 155 -33 81 -83 135 -185 197 -53 33 -68 47 -70
69 -3 25 -1 27 20 21 92 -27 224 -52 233 -45 15 14 -31 53 -125 105 -132 72
-315 224 -333 277 -9 25 10 21 62 -12 25 -16 93 -50 151 -74 158 -68 231 -103
274 -132 101 -69 19 46 -108 151 l-49 41 23 48 c66 137 292 354 369 355 8 0
91 -78 184 -172z m-2177 -27 c44 -27 78 -101 71 -154 -4 -33 -14 -50 -46 -78
l-41 -37 -1 -1053 c-1 -580 -4 -1079 -7 -1109 -9 -75 -34 -80 -65 -13 l-22 48
-3 1066 -2 1067 -29 31 c-49 52 -53 121 -11 189 20 33 68 61 105 62 11 0 34
-9 51 -19z m-1012 -50 c20 -22 20 -22 -30 -74 -28 -29 -80 -88 -117 -133 -36
-44 -84 -97 -105 -116 l-39 -35 -336 -7 c-186 -4 -342 -4 -347 -1 -6 3 -10 24
-10 46 l0 39 324 0 324 0 59 64 c33 35 97 107 143 160 88 102 92 103 134 57z
m-14 -461 c13 -8 11 -18 -16 -67 l-31 -58 -456 -3 -457 -2 0 45 c0 25 3 45 8
46 4 0 189 1 412 3 385 2 407 3 455 23 59 25 65 26 85 13z m276 -154 c38 -38
44 -49 44 -87 0 -54 -33 -122 -66 -137 -32 -15 -106 -15 -138 -1 -38 18 -69
92 -63 153 4 41 11 55 41 83 31 28 43 33 87 33 48 0 55 -3 95 -44z m1010 -50
c36 -35 44 -50 44 -79 0 -30 -7 -41 -40 -68 l-40 -32 0 -460 0 -460 68 -72
c37 -39 93 -101 124 -137 l57 -66 -2 -318 -3 -319 -39 -6 c-22 -4 -45 -4 -52
-2 -10 4 -11 68 -6 298 l6 294 -40 53 c-23 29 -49 62 -60 73 -10 11 -51 57
-91 103 l-73 83 6 57 c3 31 7 243 8 470 2 337 0 415 -11 424 -40 33 -54 116
-27 152 23 31 68 56 99 56 21 0 41 -12 72 -44z m-1312 -52 c11 -4 16 -19 16
-48 l0 -41 -449 0 c-247 0 -451 2 -454 5 -2 3 -7 24 -11 48 l-6 42 444 0 c244
0 451 -3 460 -6z m1716 -75 c44 -25 60 -54 60 -109 0 -33 -7 -47 -40 -80 -46
-46 -79 -51 -138 -21 -43 22 -62 55 -62 109 0 44 20 76 64 103 40 25 69 24
116 -2z m-1495 -151 c7 -7 8 -1046 1 -1057 -4 -6 -23 -11 -42 -11 -28 0 -36 5
-44 26 -6 15 -10 230 -10 541 l0 516 45 -6 c26 -2 48 -6 50 -9z m2001 -24 c61
-64 40 -149 -47 -192 -38 -19 -39 -21 -21 -31 12 -6 27 -11 35 -11 8 0 17 -10
21 -22 3 -13 6 -323 6 -690 0 -647 -1 -668 -19 -668 -10 0 -33 -3 -50 -6 l-31
-7 0 713 1 713 -40 33 c-48 42 -58 77 -35 133 19 48 52 70 108 71 32 0 45 -6
72 -36z m-2434 -5 c13 -17 48 -44 78 -59 104 -53 159 -135 143 -213 -3 -17
-24 -48 -46 -70 -37 -37 -42 -39 -88 -35 -32 3 -60 14 -84 33 -78 59 -95 132
-43 182 33 31 36 63 9 87 -17 15 -48 17 -312 15 l-294 -1 -6 28 c-16 70 -43
64 306 64 l314 0 23 -31z m1925 -92 c21 -20 32 -545 13 -620 -11 -46 -10 -58
4 -85 14 -27 16 -84 16 -461 l0 -430 -34 -6 c-76 -15 -70 -49 -68 415 l3 415
-81 90 c-114 126 -115 129 -115 262 0 61 4 115 8 119 4 4 17 -1 28 -13 16 -15
22 -38 26 -89 3 -38 11 -80 19 -94 16 -32 100 -127 106 -120 3 3 1 77 -3 165
-4 88 -8 231 -8 319 l-1 159 37 -6 c20 -4 43 -13 50 -20z m-2037 -113 c-6 -14
-10 -36 -10 -49 l0 -24 -207 -3 c-115 -2 -213 -2 -220 0 -12 4 -16 12 -27 64
l-6 27 147 4 c82 1 190 4 240 5 l93 2 -10 -26z m2368 -249 c-3 -53 -10 -73
-36 -110 l-32 -46 0 -524 c0 -507 -1 -525 -19 -525 -10 0 -33 -3 -50 -6 l-31
-6 0 545 0 545 76 96 c41 53 80 96 86 96 7 0 9 -24 6 -65z m-2528 35 c0 -9
156 -150 197 -177 20 -13 25 -13 45 1 12 9 42 16 65 16 35 0 49 -6 82 -38 66
-63 65 -158 -4 -222 -37 -34 -110 -33 -165 4 -57 37 -74 68 -67 119 l6 42
-104 88 -104 87 -76 0 c-80 0 -79 -1 -89 58 l-5 32 109 0 c64 0 110 -4 110
-10z m2983 -154 c40 -16 83 -66 92 -105 9 -41 -17 -97 -57 -121 -48 -29 -92
-26 -144 12 -42 30 -44 34 -44 81 0 63 24 105 75 128 48 22 39 22 78 5z m-51
-286 l36 -10 7 -73 c8 -91 2 -538 -8 -553 -3 -6 -19 -14 -34 -17 -16 -3 -36
-9 -45 -12 -17 -7 -18 3 -18 122 0 195 12 553 19 553 3 0 23 -5 43 -10z
m-2193 -236 c44 -50 66 -111 56 -152 -3 -14 -23 -43 -44 -64 -31 -30 -46 -38
-75 -38 -45 0 -81 18 -121 60 -26 27 -30 39 -29 86 0 63 21 98 80 131 60 35
86 30 133 -23z m1047 -7 c31 -28 37 -42 41 -84 5 -45 2 -53 -27 -86 -31 -35
-35 -37 -95 -37 -85 0 -107 18 -113 91 -5 61 14 95 72 130 46 28 81 24 122
-14z m-32 -269 c3 -18 7 -99 10 -180 l5 -148 -23 -6 c-13 -3 -37 -4 -52 -2
l-29 3 0 165 c0 91 3 173 7 183 5 11 18 17 42 17 32 0 36 -3 40 -32z"/>
<path d="M5540 7183 c-8 -3 -42 -18 -75 -34 -33 -15 -77 -34 -97 -43 -48 -19
-43 -46 9 -46 27 0 47 -10 86 -42 56 -47 57 -47 263 -37 69 4 74 3 114 -30 23
-18 44 -31 47 -28 17 17 -119 206 -176 244 -27 18 -47 23 -95 22 -34 0 -68 -3
-76 -6z"/>
<path d="M4172 7158 c-18 -18 -14 -73 6 -91 52 -47 116 20 82 84 -12 22 -68
27 -88 7z"/>
<path d="M4185 4015 c-35 -34 -35 -91 0 -107 21 -9 32 -8 60 5 31 15 35 21 35
55 0 68 -50 93 -95 47z"/>
<path d="M3953 4400 c-46 -19 -55 -88 -14 -110 22 -11 70 2 83 23 13 20 9 65
-8 81 -17 18 -29 19 -61 6z"/>
<path d="M4460 6671 c-22 -43 1 -81 49 -81 34 0 51 17 51 50 0 35 -17 50 -57
50 -22 0 -36 -6 -43 -19z"/>
<path d="M3653 6528 c-28 -36 -18 -83 19 -97 23 -9 56 2 70 23 12 17 9 61 -4
74 -16 16 -73 15 -85 0z"/>
<path d="M3636 6104 c-40 -40 4 -122 58 -108 51 12 73 75 38 107 -23 21 -76
22 -96 1z"/>
<path d="M6782 6045 c-58 -65 -55 -155 8 -217 32 -33 44 -38 83 -38 50 0 57 9
57 65 0 26 -10 46 -44 84 -34 38 -46 62 -51 96 -4 25 -11 45 -15 45 -4 0 -22
-16 -38 -35z"/>
<path d="M6614 6015 c-25 -38 -16 -155 16 -219 24 -48 73 -96 85 -84 4 3 -9
32 -27 64 -30 54 -33 67 -36 161 -3 57 -8 103 -13 103 -5 0 -16 -11 -25 -25z"/>
<path d="M4484 6308 c-52 -24 -50 -89 3 -109 39 -14 65 13 61 64 -3 45 -28 61
-64 45z"/>
<path d="M3664 5656 c-13 -21 -14 -29 -2 -52 19 -39 41 -50 72 -36 30 14 43
54 27 88 -15 34 -74 34 -97 0z"/>
<path d="M4707 5632 c-21 -23 -21 -41 -1 -70 40 -58 118 5 84 69 -14 25 -61
25 -83 1z"/>
<path d="M5121 5468 c-19 -52 22 -92 65 -63 32 21 38 38 24 64 -16 30 -78 29
-89 -1z"/>
<path d="M5622 5333 c-22 -9 -34 -41 -22 -63 18 -34 48 -44 76 -25 54 35 7
113 -54 88z"/>
<path d="M3335 5165 c-30 -29 -32 -58 -5 -85 41 -41 110 -10 110 49 0 60 -61
81 -105 36z"/>
<path d="M3281 4676 c-48 -51 -5 -117 61 -94 52 18 57 82 8 108 -29 15 -44 12
-69 -14z"/>
<path d="M5926 4704 c-35 -34 -2 -88 50 -82 21 2 31 11 39 32 8 24 6 31 -14
47 -28 23 -54 24 -75 3z"/>
<path d="M3625 4187 c-18 -29 -4 -81 26 -98 47 -25 105 43 81 96 -10 21 -18
25 -52 25 -30 0 -43 -5 -55 -23z"/>
<path d="M4695 4188 c-16 -40 -5 -65 32 -74 50 -13 79 33 52 82 -9 17 -21 24
-41 24 -23 0 -32 -7 -43 -32z"/>
<path d="M5271 8834 c0 -16 4 -49 7 -73 l7 -44 58 52 c63 59 72 81 30 81 -16
0 -45 3 -65 6 -37 6 -38 6 -37 -22z"/>
<path d="M4490 8776 c-365 -78 -698 -198 -945 -341 -449 -259 -836 -666 -1068
-1122 -167 -327 -270 -682 -295 -1013 -12 -163 -6 -485 11 -622 30 -230 134
-593 228 -796 40 -87 137 -253 225 -387 210 -319 549 -632 909 -837 304 -173
560 -269 874 -328 348 -64 693 -65 1046 0 528 96 943 292 1326 626 369 322
657 745 822 1206 149 416 183 996 86 1473 -62 304 -221 665 -431 977 -232 347
-590 667 -983 880 -119 65 -354 172 -410 187 -66 18 -75 15 -75 -21 0 -18 -4
-50 -9 -70 -7 -31 -6 -38 6 -38 9 0 62 -15 118 -34 200 -67 486 -228 683 -386
135 -107 335 -301 419 -405 220 -273 422 -657 512 -978 68 -242 82 -363 81
-708 0 -244 -10 -369 -45 -556 -87 -468 -416 -1020 -831 -1397 -402 -366 -881
-579 -1459 -651 -138 -17 -484 -20 -620 -5 -138 16 -389 66 -500 101 -294 91
-640 280 -903 492 -251 203 -516 530 -679 837 -173 327 -276 757 -275 1153 1
413 46 665 178 994 307 766 889 1303 1684 1551 87 27 299 77 360 84 19 2 31
15 50 54 14 29 31 59 38 67 15 17 8 38 -11 36 -7 0 -59 -11 -117 -23z"/>
<path d="M2900 6403 c8 -4 21 -14 28 -25 7 -10 20 -18 28 -18 8 0 14 -3 14 -7
-1 -20 -19 -31 -65 -39 -27 -5 -45 -12 -40 -16 9 -5 40 1 158 33 20 5 37 14
37 19 0 8 -149 61 -167 59 -4 0 -1 -3 7 -6z"/>
<path d="M5508 5783 c7 -3 16 -2 19 1 4 3 -2 6 -13 5 -11 0 -14 -3 -6 -6z"/>
<path d="M5393 5773 c15 -2 37 -2 50 0 12 2 0 4 -28 4 -27 0 -38 -2 -22 -4z"/>
<path d="M7182 5584 c-1 -17 -4 -47 -7 -65 l-5 -34 11 34 c5 18 8 47 6 65 l-4
31 -1 -31z"/>
<path d="M7120 5403 c-14 -19 -47 -58 -75 -86 -32 -33 -40 -45 -22 -34 32 21
96 88 97 101 0 5 7 18 17 28 9 10 14 20 12 22 -2 2 -15 -12 -29 -31z"/>
<path d="M6975 5260 c-3 -5 -1 -10 4 -10 6 0 11 5 11 10 0 6 -2 10 -4 10 -3 0
-8 -4 -11 -10z"/>
<path d="M6878 5223 c7 -3 16 -2 19 1 4 3 -2 6 -13 5 -11 0 -14 -3 -6 -6z"/>
<path d="M6710 5205 c-23 -9 -28 -14 -15 -14 11 0 31 6 45 14 31 18 16 18 -30
0z"/>
<path d="M6798 5213 c12 -2 32 -2 45 0 12 2 2 4 -23 4 -25 0 -35 -2 -22 -4z"/>
<path d="M6618 5173 c7 -3 16 -2 19 1 4 3 -2 6 -13 5 -11 0 -14 -3 -6 -6z"/>
<path d="M6475 2660 c-42 -9 -73 -27 -85 -50 -6 -12 -10 -147 -10 -362 l0
-344 29 -28 c53 -51 143 -45 195 13 17 19 19 45 23 360 4 301 2 343 -12 365
-24 36 -87 57 -140 46z"/>
<path d="M7292 2659 c-19 -4 -47 -19 -63 -35 l-29 -28 0 -342 c0 -329 1 -342
21 -367 43 -56 134 -57 193 -2 l26 24 0 345 c0 189 -3 352 -6 360 -13 33 -87
57 -142 45z"/>
<path d="M6194 1380 c-36 -14 -64 -59 -64 -102 0 -32 6 -46 31 -69 34 -32 66
-36 108 -14 26 13 61 68 61 95 0 27 -42 79 -72 89 -36 13 -36 13 -64 1z"/>
<path d="M5260 1356 c0 -34 2 -36 33 -36 18 0 42 6 52 14 26 19 13 46 -24 46
-16 0 -36 3 -45 6 -13 5 -16 -1 -16 -30z"/>
<path d="M5262 1218 c3 -29 7 -33 37 -36 59 -6 83 5 79 36 -3 26 -6 27 -61 30
l-58 3 3 -33z"/>
</g>
</svg>
